<svg height="72" viewBox="0 0 72 72" width="72" xmlns="http://www.w3.org/2000/svg" xmlns:xlink="http://www.w3.org/1999/xlink"><defs><path id="a" d="m6 0h52a6 6 0 0 1 6 6v52a6 6 0 0 1 -6 6h-52a6 6 0 0 1 -6-6v-52a6 6 0 0 1 6-6z"/><filter id="b" height="121.9%" width="121.9%" x="-10.9%" y="-7.8%"><feOffset dy="2" in="SourceAlpha" result="shadowOffsetOuter1"/><feGaussianBlur in="shadowOffsetOuter1" result="shadowBlurOuter1" stdDeviation="2"/><feColorMatrix in="shadowBlurOuter1" values="0 0 0 0 0 0 0 0 0 0 0 0 0 0 0 0 0 0 0.2 0"/></filter><mask id="c" fill="#fff"><use fill="#fff" fill-rule="evenodd" xlink:href="#a"/></mask></defs><g fill="none" fill-rule="evenodd" transform="translate(4 2)"><use fill="#000" filter="url(#b)" xlink:href="#a"/><use fill="#fff" xlink:href="#a"/><g fill-rule="nonzero" mask="url(#c)"><path d="m31 31h-15v-15h15z" fill="#f1511b"/><path d="m48 31h-15v-15h15z" fill="#80cc28"/><path d="m31 48h-15v-15h15z" fill="#00adef"/><path d="m48 48h-15v-15h15z" fill="#fbbc09"/></g></g></svg>