<?xml version="1.0" encoding="UTF-8"?>
<svg width="10px" height="10px" viewBox="0 0 10 10" version="1.1" xmlns="http://www.w3.org/2000/svg" xmlns:xlink="http://www.w3.org/1999/xlink">
    <!-- Generator: Sketch 52.6 (67491) - http://www.bohemiancoding.com/sketch -->
    <title>Combined Shape</title>
    <desc>Created with Sketch.</desc>
    <g id="Page-1" stroke="none" stroke-width="1" fill="none" fill-rule="evenodd">
        <path d="M4.99977667,3.58577667 L7.8280292,0.757524138 C8.21855349,0.366999846 8.85171847,0.366999846 9.24224276,0.757524138 C9.63276706,1.14804843 9.63276706,1.78121341 9.24224276,2.1717377 L6.41399023,4.99999023 L9.241,7.827 C9.42959482,8.01421129 9.53582937,8.26884787 9.5362047,8.53458446 C9.53658004,8.80032104 9.43106522,9.0552567 9.243,9.243 C8.853,9.633 8.213,9.627 7.827,9.241 L4.99999023,6.41399023 L2.17117495,9.24280551 C1.78065066,9.6333298 1.14748568,9.6333298 0.75696139,9.24280551 C0.366437098,8.85228122 0.366437098,8.21911624 0.75696139,7.82859195 L3.58577667,4.99977667 L0.759,2.173 C0.570405182,1.98578871 0.464170633,1.73115213 0.463795299,1.46541554 C0.463419965,1.19967896 0.568934779,0.944743298 0.757,0.757 C1.147,0.367 1.787,0.373 2.173,0.759 L4.99977667,3.58577667 Z" id="Combined-Shape" fill="#CED2E0"></path>
    </g>
</svg>